<svg xmlns="http://www.w3.org/2000/svg" viewBox="0 0 1000 374.33"><defs><style>.cls-1{fill:#007aff;}</style></defs><title>Asset 2</title><g id="Layer_2" data-name="Layer 2"><g id="Layer_1-2" data-name="Layer 1"><path class="cls-1" d="M49,155.76l40.24-60a158.94,158.94,0,0,0-28.9,4,223.27,223.27,0,0,0-26,7.32Q23.49,110.9,15,114.4T2.77,119.34a3.16,3.16,0,0,1-1.85-.66A1.91,1.91,0,0,1,0,117.1Q0,116,6.13,104.17T20.58,78.7q46.18-16.49,81.54-16.49,40.9,0,56.74,17.42a41.61,41.61,0,0,1,8.77,15,53.3,53.3,0,0,1,3.1,17.61,78,78,0,0,1-8.24,36,83.16,83.16,0,0,1-23.55,28,110.21,110.21,0,0,1-36,18.15,156.3,156.3,0,0,1-45.39,6.27q-4.35,0-17.81-1.58L27.84,220.68a8.91,8.91,0,0,1,1.85,4.49A12.1,12.1,0,0,1,27.84,232q-2.64,4-7,10.42T15,251a19.88,19.88,0,0,1-3.43,3.69,6,6,0,0,1-3.76,1.58Q4,256.3,2.9,254a15.75,15.75,0,0,1-1.06-6.4q0-5.81,5.74-18.4t17.35-33.45a24.35,24.35,0,0,1-9.63-6.2q-3.43-3.83-3.43-7.52,0-8.18,9.37-15.17T49,155.76Zm13.72,3.56L55.15,172q5,.26,8.91.53t6.53.26q23.09,0,40-6.2t26.92-15.37q10-9.17,14.45-18.4t4.49-15.44a15.62,15.62,0,0,0-6.86-13.46Q142.76,99,129.9,97.24a250,250,0,0,0-33.18-1.78A20.33,20.33,0,0,1,97,99q0,6.86-7.26,18.08l-23,36,17.28-2q2.11,0,2.11,2,0,1.72-3.43,2.37Z"/><path class="cls-1" d="M258.63,192.57v8.32q-11.48,11.74-19.86,19.2a106.64,106.64,0,0,1-14.64,11.28q-6.27,3.83-10.62,3.83-10.29,0-10.29-12.14,0-9.76,6.4-22.63A255.82,255.82,0,0,1,228,170.14a77,77,0,0,0-11.22,7.59,75.58,75.58,0,0,0-9.37,9q-4.09,4.68-6.86,8-8.58,9.63-16.49,19.73t-10.69,13.13q-2.77,3-5.28,3-10.29,0-10.29-25.33a76.12,76.12,0,0,1,2.51-18.34q2.51-10,13.46-26.52,23.09-34.57,39.52-56.54t27.24-33.25q10.82-11.29,14.51-11a20.29,20.29,0,0,1,7.45,1.85q2.84,1.45,2.84,3.3,0,3.3-4.55,10.89T245.17,99.29q-12,17-17,23.95t-15,19.66q-10,12.73-18.21,22.69t-18.8,21.57V203q17.68-19.66,30.61-32.2t21.9-18.93q9-6.4,13.19-6.4,4,0,7.39,4.68t3.43,7.72a6.41,6.41,0,0,1-1.32,3.3q-9.5,11.35-15.11,18.8a96.41,96.41,0,0,0-8.64,13.33q-3,5.87-3,10.09,0,6.2,5.94,6.2Q236.86,209.6,258.63,192.57Z"/><path class="cls-1" d="M338.6,192.31v8.84q-8.71,7.92-14,10.56t-15.17,2.11q-17.15,20.32-30.22,20.32a21,21,0,0,1-13.46-4.89,33.81,33.81,0,0,1-9.7-13.32,47.34,47.34,0,0,1-3.63-18.87q0-8.44,5.61-18.74a83.83,83.83,0,0,1,14.51-19.2,82,82,0,0,1,19.06-14.38q10.16-5.48,18.87-5.48,6.2,0,9.76,1.91t3.56,5.35q0,2.64-3,6.07,5,1.06,6.86,3.5t1.85,8.9q0,6.33-3,16A79.57,79.57,0,0,1,318.42,199l2.37,2.37h2a9.53,9.53,0,0,0,4.42-1.12,28.93,28.93,0,0,0,3.89-2.37Q332.8,196.67,338.6,192.31Zm-27.18-34.7q-11,6.6-18.74,11.94a90.07,90.07,0,0,0-13.19,10.82,29.1,29.1,0,0,0-7.26,11q-3.3,14.78-3.3,16,0,8.71,12.14,8.71,5.67,0,19-9.76a34.88,34.88,0,0,1-2.24-11.87,45.72,45.72,0,0,1,3.43-16.95A140,140,0,0,1,311.42,157.61Z"/><path class="cls-1" d="M422.41,168.69q-23.22,25.87-23.22,36,0,5.67,4.62,5.68,3.83,0,10-4T433,192v9.11q-18.74,18.47-28.76,26.65T387.84,236Q377,236,377,221.73a26.94,26.94,0,0,1,1.32-8.32,54.62,54.62,0,0,1,3.63-8.51q2.31-4.43,7.06-12.67t11-18.68q-7.52,3.83-18.87,15.18a146.85,146.85,0,0,0-12.53,13.53q-5.15,6.39-11,14.25A113.26,113.26,0,0,1,349,227.08a7.85,7.85,0,0,1-5.47,2.7q-4.22,0-7.78-8.84a54.82,54.82,0,0,1-3.56-20.58q0-7.26,1.65-11.35a75.65,75.65,0,0,1,6.53-11.61q9.1-14,15.7-20.52t12.67-6.53a13.8,13.8,0,0,1,6.8,1.45,4.81,4.81,0,0,1,2.57,4.49,5.8,5.8,0,0,1-.79,2.77,16.51,16.51,0,0,1-1.78,2.64q-1,1.19-4.16,4.62-20.85,23.1-20.85,30,0,3.83,2.51,3.83,1.58,0,6.14-5.08t11.74-13.32a213.1,213.1,0,0,1,17-17.22,183.39,183.39,0,0,1,22.36-17.28q7-4.88,11.61-4.88,2.11,0,4.15,5.81a35.12,35.12,0,0,1,2,11.74Q428.08,162.75,422.41,168.69Z"/><path class="cls-1" d="M448.42,197.32v3.3q0,7.78,3.83,12.14a12.71,12.71,0,0,0,10,4.35,33.31,33.31,0,0,0,13.39-3A73.41,73.41,0,0,0,489.45,206q6.86-5,16.76-13.46v8.05q-14.91,17.94-28,27.51t-26.52,9.56q-11.74,0-18.6-9.1t-6.86-24.94a49.62,49.62,0,0,1,6.47-25.13q6.47-11.29,21.11-23.82a81.52,81.52,0,0,1,19.92-12.93q9.9-4.35,17.68-4.35,6.2,0,9.83,2.84t3.63,8.51q0,8.31-6.2,16.56t-18.93,16.36A194.19,194.19,0,0,1,448.42,197.32Zm1.32-8.57a75.15,75.15,0,0,0,20.32-11.48q8.44-6.86,12.47-13.13t4-9.17q0-3-2.77-3-2.37,0-7.72,3a63.79,63.79,0,0,0-10.82,7.92,58.26,58.26,0,0,0-9.83,11.48A37.1,37.1,0,0,0,449.74,188.75Z"/><path class="cls-1" d="M683.72,192.57v9.64q-12.8,16.49-23.88,24.87T641,235.46q-10.82,0-16.1-11.35a58.09,58.09,0,0,1-5.28-24.81,44.64,44.64,0,0,1,1.06-9.83,37.09,37.09,0,0,1,2.5-7.72q1.45-3,5.41-9.5,18.74-29.16,34.31-29.16,8,0,8.05,6.2,0,4.22-5.22,13.19t-9.3,12.8q-11.47,11.09-15,15.44a15.41,15.41,0,0,0-3.5,9.9,10.16,10.16,0,0,0,3.57,7.92,13.38,13.38,0,0,0,9.24,3.17q6.2,0,13.65-4.55T683.72,192.57Zm-9-59a9.58,9.58,0,0,1-6.27-2.51,7.93,7.93,0,0,1-3-6.33q0-5.81,5.54-12.93t11.48-7.12a9.34,9.34,0,0,1,6.59,2.44q2.64,2.45,2.64,7.06,0,5.67-5.41,12.53T674.74,133.59Z"/><path class="cls-1" d="M766.6,168.69q-23.22,25.87-23.22,36,0,5.67,4.62,5.68,3.82,0,10-4T777.15,192v9.11q-18.74,18.47-28.76,26.65T732,236q-10.82,0-10.82-14.25a26.94,26.94,0,0,1,1.32-8.32,55,55,0,0,1,3.63-8.51q2.31-4.43,7.06-12.67t10.95-18.68q-7.52,3.83-18.86,15.18a146,146,0,0,0-12.54,13.53q-5.15,6.39-11,14.25a112.7,112.7,0,0,1-8.58,10.56,7.84,7.84,0,0,1-5.47,2.7q-4.22,0-7.78-8.84a54.68,54.68,0,0,1-3.57-20.58q0-7.26,1.65-11.35a75.65,75.65,0,0,1,6.53-11.61q9.1-14,15.7-20.52t12.67-6.53a13.82,13.82,0,0,1,6.8,1.45,4.81,4.81,0,0,1,2.57,4.49,5.8,5.8,0,0,1-.79,2.77,16.51,16.51,0,0,1-1.78,2.64q-1,1.19-4.16,4.62-20.85,23.1-20.84,30,0,3.83,2.5,3.83,1.58,0,6.14-5.08t11.74-13.32a213.67,213.67,0,0,1,17-17.22,183.39,183.39,0,0,1,22.36-17.28q7-4.88,11.61-4.88,2.11,0,4.15,5.81a35,35,0,0,1,2.05,11.74Q772.27,162.75,766.6,168.69Z"/><path class="cls-1" d="M834.56,192.57v9.64q-12.8,16.49-23.88,24.87t-18.87,8.38q-10.82,0-16.1-11.35a58.09,58.09,0,0,1-5.28-24.81,44.64,44.64,0,0,1,1.06-9.83,37.09,37.09,0,0,1,2.5-7.72q1.45-3,5.41-9.5,18.74-29.16,34.31-29.16,8,0,8.05,6.2,0,4.22-5.22,13.19t-9.3,12.8q-11.47,11.09-15,15.44a15.41,15.41,0,0,0-3.5,9.9,10.16,10.16,0,0,0,3.57,7.92,13.38,13.38,0,0,0,9.24,3.17q6.2,0,13.65-4.55T834.56,192.57Zm-9-59a9.58,9.58,0,0,1-6.27-2.51,7.93,7.93,0,0,1-3-6.33q0-5.81,5.54-12.93t11.48-7.12a9.34,9.34,0,0,1,6.59,2.44q2.64,2.45,2.64,7.06,0,5.67-5.41,12.53T825.59,133.59Z"/><path class="cls-1" d="M881.76,124.09h5.68q7-12.53,12.67-17.75A18.6,18.6,0,0,1,913,101.13q7.26,0,7.25,3.3,0,1.58-5.67,8.58A114.2,114.2,0,0,0,906,124.75l8,.92c2.33.26,4.15.48,5.48.66A208.29,208.29,0,0,1,900.63,155l-6.2-.46-5.07-.4-6.27-.46q-7.12,11.48-11.94,20.52a114.27,114.27,0,0,0-7.39,16.56A44,44,0,0,0,861.17,205q0,9.1,7.26,9.11,5,0,13.13-5.35t21.71-16.43v8.84q-35.62,38.66-52.65,38.66a11.57,11.57,0,0,1-9.56-4.61q-3.63-4.62-3.63-11.87a40.81,40.81,0,0,1,2.05-11.61q2-6.73,7.32-20.32-1.85,1.58-3.5,3.1c-1.1,1-2.11,1.94-3,2.77s-1.91,1.71-3,2.64-2.11,1.87-3.17,2.84v-9.11Q848,182,867.64,152.86q-2-.13-3.69-.2t-4.09-.07a47,47,0,0,0-11.61,1.06c-1.06.26-2.05.55-3,.86a7.42,7.42,0,0,1-1.91.46q-.53,0-.53-.79,0-4.35,5.41-13.06a48.05,48.05,0,0,1,8.24-11,20.42,20.42,0,0,1,9.5-4.82A76.63,76.63,0,0,1,881.76,124.09Z"/><path class="cls-1" d="M959,197.72l-23.49,19.92q-16.76,14.65-22.42,14.65-5.16,0-10.83-11.81t-5.67-20.65a31.45,31.45,0,0,1,2.31-12.73,92.2,92.2,0,0,1,8-13.53,181,181,0,0,1,15.43-19,112,112,0,0,1,13.07-12.07q5.67-4.28,7.92-4.29,3.56,0,6.93,3.69a11.33,11.33,0,0,1,3.36,7.65q0,2.51-3.63,8a116.59,116.59,0,0,1-11.48,14.05A254.66,254.66,0,0,1,916.61,192l-2.5,7.26a8.41,8.41,0,0,0-1.06,3.69q0,3.56,3.56,3.56T934,197.19q13.66-9.37,29.62-25.2,6.2-6.2,10.29-11t7.39-8.9a68,68,0,0,1,5.47-6.27,6.83,6.83,0,0,1,3.9-2.24,4.94,4.94,0,0,1,5.14,2.77q1.85,3.17,1.85,9.37,0,3.56-3.17,8.9t-11.87,18.21q-8.71,12.87-17.35,26.65T947.61,240.6l8.12-7.92q7.71-7.52,16.29-15.7t14.11-13.13q5.54-5,13.86-11.55v8.84q-17.81,19.13-32.26,36.28t-22.3,27.44l-9.17,12q-3.57,4.62-6.4,8.64t-4.75,6.2c-1.28,1.45-2.31,2.18-3.1,2.18-1.85,0-3.5-1.83-5-5.48a26.8,26.8,0,0,1-2.18-9.7,14.87,14.87,0,0,1,1.45-6.73Q925.85,250.63,959,197.72Z"/><path class="cls-1" d="M613.8,2.62A72.3,72.3,0,0,1,639.2,15a68.34,68.34,0,0,1,18,20.5,70.28,70.28,0,0,1,8.64,27.1q1.78,15.11-2.85,32.36a94.53,94.53,0,0,1-11.67,26.15,188.72,188.72,0,0,1-19.13,25.05,285.16,285.16,0,0,1-24.41,24q-13.35,11.7-27.28,23.12,6.17,16.55,11.85,33a331.27,331.27,0,0,1,9.39,32,176.88,176.88,0,0,1,4.57,30.25,86,86,0,0,1-2.6,27.55Q598.7,335,589.55,347.43t-20.61,19a58.67,58.67,0,0,1-24.68,7.64,78.11,78.11,0,0,1-26.73-2.54,72,72,0,0,1-24.74-11.89A64.55,64.55,0,0,1,475,339.48a72.88,72.88,0,0,1-8.64-27.1q-1.89-15.14,2.73-32.4a89,89,0,0,1,11.15-24.74A183.36,183.36,0,0,1,498.95,231q10.85-12,24-23.88t27.13-23.55q-6-16.24-11.52-32.75a294.28,294.28,0,0,1-9-32.7,186.87,186.87,0,0,1-4-31.38,96.54,96.54,0,0,1,3.07-28.84q5-18.69,14-30.92A66.47,66.47,0,0,1,563,8.16,60.66,60.66,0,0,1,587.51.33,73.48,73.48,0,0,1,613.8,2.62ZM560.26,210.16q-12,9.89-22.92,19.41t-20.1,19a140.19,140.19,0,0,0-15.61,19.19,67.1,67.1,0,0,0-9.23,20,50.12,50.12,0,0,0-1.68,18.81,39.27,39.27,0,0,0,5.21,15.78,40.51,40.51,0,0,0,11.23,12.13A48.83,48.83,0,0,0,523.37,342q21.71,5.83,36.44-2.81t20.77-31.16a60.35,60.35,0,0,0,1.63-20.11,139.28,139.28,0,0,0-3.91-23.52q-3.11-12.51-7.87-26.12T560.26,210.16ZM608.38,32.5a52.63,52.63,0,0,0-20.6-1.79A38.63,38.63,0,0,0,559.21,49a64.88,64.88,0,0,0-9.52,38.92,149.28,149.28,0,0,0,3.61,23.7q2.87,12.46,7.56,26.29T571,166.29q12.09-10.37,23.42-20.31t20.53-19.67a148.63,148.63,0,0,0,15.68-19.43,66.61,66.61,0,0,0,9.18-19.75,49.51,49.51,0,0,0,1.59-19,41.81,41.81,0,0,0-5.27-16A38.25,38.25,0,0,0,624.86,40,51.55,51.55,0,0,0,608.38,32.5Z"/></g></g></svg>